<svg width="66" height="22" viewBox="0 0 66 22" fill="none" xmlns="http://www.w3.org/2000/svg">
<path d="M26.7 4.11068H32.0779C33.2252 4.11068 34.2617 4.38447 35.1874 4.93204C36.1261 5.46657 36.8627 6.2423 37.3972 7.25922C37.9448 8.27614 38.2186 9.46907 38.2186 10.838C38.2186 12.2982 37.9513 13.5563 37.4168 14.6123C36.8822 15.6553 36.1456 16.4506 35.2069 16.9982C34.2813 17.5327 33.2383 17.8 32.0779 17.8H26.7V4.11068ZM31.8042 15.4728C32.8602 15.4728 33.7337 15.0817 34.4247 14.2994C35.1157 13.5172 35.4612 12.3634 35.4612 10.838C35.4612 9.89931 35.2982 9.0975 34.9723 8.43259C34.6463 7.76768 34.2031 7.27226 33.6424 6.94632C33.0949 6.60735 32.4821 6.43786 31.8042 6.43786H29.4183V15.4728H31.8042Z" fill="white"/>
<path d="M44.2717 10.0558C43.7241 10.0558 43.2874 10.2839 42.9614 10.7402C42.6355 11.1965 42.4725 11.7311 42.4725 12.3438V17.8H39.9498V7.94369H42.4725V9.2344C42.6681 8.8172 42.9353 8.49778 43.2743 8.27614C43.6133 8.05451 44.0109 7.94369 44.4672 7.94369H45.6797V10.0558H44.2717Z" fill="white"/>
<path d="M47.0542 7.94369H49.5769V17.8H47.0542V7.94369ZM49.6942 3.93467V6.51609H46.9759V3.93467H49.6942Z" fill="white"/>
<path d="M52.71 10.0558H50.8717V7.94369H52.71V6.59431C52.71 5.65562 52.9447 4.93856 53.414 4.44313C53.8834 3.94771 54.5548 3.7 55.4283 3.7H57.8337V5.81207H56.2692C55.9172 5.81207 55.6565 5.90333 55.487 6.08585C55.3175 6.25534 55.2328 6.54216 55.2328 6.94632V7.94369H58.0293V10.0558H55.2328V17.8H52.71V10.0558Z" fill="white"/>
<path d="M62.8919 4.5018V7.94369H65.5515V10.0558H62.8919V14.6123C62.8919 15.3294 63.2178 15.6879 63.8697 15.6879H65.4929V17.8H63.1266C62.24 17.8 61.5556 17.5653 61.0732 17.096C60.6038 16.6136 60.3692 15.877 60.3692 14.8861V10.0558H58.5309V7.94369H60.3692V5.55784L62.8919 4.5018Z" fill="white"/>
<path d="M15.3233 17.5047C15.3233 18.2225 15.0558 18.8518 14.6265 19.3344C14.6214 19.3401 14.6179 19.347 14.6164 19.3545C14.6099 19.3853 14.6375 19.4125 14.6681 19.405C15.9061 19.0999 16.9071 18.0424 16.9071 16.6538V9.45485C16.9071 7.32679 15.7184 5.36037 13.7889 4.29634L5.99787 0L4.45452 0.873256L12.2051 5.14727C14.1346 6.21131 15.3233 8.17772 15.3233 10.3058V17.5047Z" fill="url(#paint0_linear_10495_1826)"/>
<path d="M15.3233 17.5047C15.3233 18.2225 15.0558 18.8518 14.6265 19.3344C14.6214 19.3401 14.6179 19.347 14.6164 19.3545C14.6099 19.3853 14.6375 19.4125 14.6681 19.405C15.9061 19.0999 16.9071 18.0424 16.9071 16.6538V9.45485C16.9071 7.32679 15.7184 5.36037 13.7889 4.29634L5.99787 0L4.45452 0.873256L12.2051 5.14727C14.1346 6.21131 15.3233 8.17772 15.3233 10.3058V17.5047Z" fill="url(#paint1_linear_10495_1826)"/>
<path d="M15.3233 17.5047C15.3233 18.2225 15.0558 18.8518 14.6265 19.3344C14.6214 19.3401 14.6179 19.347 14.6164 19.3545C14.6099 19.3853 14.6375 19.4125 14.6681 19.405C15.9061 19.0999 16.9071 18.0424 16.9071 16.6538V9.45485C16.9071 7.32679 15.7184 5.36037 13.7889 4.29634L5.99787 0L4.45452 0.873256L12.2051 5.14727C14.1346 6.21131 15.3233 8.17772 15.3233 10.3058V17.5047Z" fill="url(#paint2_angular_10495_1826)" fill-opacity="0.2"/>
<path d="M15.3233 17.5047C15.3233 18.2225 15.0558 18.8518 14.6265 19.3344C14.6214 19.3401 14.6179 19.347 14.6164 19.3545C14.6099 19.3853 14.6375 19.4125 14.6681 19.405C15.9061 19.0999 16.9071 18.0424 16.9071 16.6538V9.45485C16.9071 7.32679 15.7184 5.36037 13.7889 4.29634L5.99787 0L4.45452 0.873256L12.2051 5.14727C14.1346 6.21131 15.3233 8.17772 15.3233 10.3058V17.5047Z" fill="url(#paint3_angular_10495_1826)" fill-opacity="0.1"/>
<path d="M15.3233 17.5047C15.3233 18.2225 15.0558 18.8518 14.6265 19.3344C14.6214 19.3401 14.6179 19.347 14.6164 19.3545C14.6099 19.3853 14.6375 19.4125 14.6681 19.405C15.9061 19.0999 16.9071 18.0424 16.9071 16.6538V9.45485C16.9071 7.32679 15.7184 5.36037 13.7889 4.29634L5.99787 0L4.45452 0.873256L12.2051 5.14727C14.1346 6.21131 15.3233 8.17772 15.3233 10.3058V17.5047Z" fill="url(#paint4_linear_10495_1826)" fill-opacity="0.2"/>
<path d="M13.1455 18.7339V11.5349C13.1455 9.40685 11.9568 7.44043 10.0273 6.3764L2.27676 2.10238L3.82011 1.22913L11.6111 5.52547C13.5407 6.5895 14.7293 8.55591 14.7293 10.684V17.8829C14.7293 19.2716 13.7284 20.329 12.4904 20.6341C12.4598 20.6416 12.4321 20.6145 12.4386 20.5836C12.4402 20.5761 12.4437 20.5692 12.4487 20.5635C12.8781 20.0809 13.1455 19.4516 13.1455 18.7339Z" fill="url(#paint5_linear_10495_1826)"/>
<path d="M13.1455 18.7339V11.5349C13.1455 9.40685 11.9568 7.44043 10.0273 6.3764L2.27676 2.10238L3.82011 1.22913L11.6111 5.52547C13.5407 6.5895 14.7293 8.55591 14.7293 10.684V17.8829C14.7293 19.2716 13.7284 20.329 12.4904 20.6341C12.4598 20.6416 12.4321 20.6145 12.4386 20.5836C12.4402 20.5761 12.4437 20.5692 12.4487 20.5635C12.8781 20.0809 13.1455 19.4516 13.1455 18.7339Z" fill="url(#paint6_linear_10495_1826)"/>
<path d="M13.1455 18.7339V11.5349C13.1455 9.40685 11.9568 7.44043 10.0273 6.3764L2.27676 2.10238L3.82011 1.22913L11.6111 5.52547C13.5407 6.5895 14.7293 8.55591 14.7293 10.684V17.8829C14.7293 19.2716 13.7284 20.329 12.4904 20.6341C12.4598 20.6416 12.4321 20.6145 12.4386 20.5836C12.4402 20.5761 12.4437 20.5692 12.4487 20.5635C12.8781 20.0809 13.1455 19.4516 13.1455 18.7339Z" fill="url(#paint7_angular_10495_1826)" fill-opacity="0.2"/>
<path d="M13.1455 18.7339V11.5349C13.1455 9.40685 11.9568 7.44043 10.0273 6.3764L2.27676 2.10238L3.82011 1.22913L11.6111 5.52547C13.5407 6.5895 14.7293 8.55591 14.7293 10.684V17.8829C14.7293 19.2716 13.7284 20.329 12.4904 20.6341C12.4598 20.6416 12.4321 20.6145 12.4386 20.5836C12.4402 20.5761 12.4437 20.5692 12.4487 20.5635C12.8781 20.0809 13.1455 19.4516 13.1455 18.7339Z" fill="url(#paint8_angular_10495_1826)" fill-opacity="0.1"/>
<path d="M13.1455 18.7339V11.5349C13.1455 9.40685 11.9568 7.44043 10.0273 6.3764L2.27676 2.10238L3.82011 1.22913L11.6111 5.52547C13.5407 6.5895 14.7293 8.55591 14.7293 10.684V17.8829C14.7293 19.2716 13.7284 20.329 12.4904 20.6341C12.4598 20.6416 12.4321 20.6145 12.4386 20.5836C12.4402 20.5761 12.4437 20.5692 12.4487 20.5635C12.8781 20.0809 13.1455 19.4516 13.1455 18.7339Z" fill="url(#paint9_linear_10495_1826)" fill-opacity="0.2"/>
<path fill-rule="evenodd" clip-rule="evenodd" d="M0 3.39016L1.56346 2.50552L9.3545 6.80187C11.284 7.8659 12.4727 9.83231 12.4727 11.9604V19.1948L12.4725 19.1947C12.4459 21.3575 9.98722 22.7016 8.01815 21.6158L0.956906 17.7219L0 17.2078V3.39016ZM10.8888 12.8338V17.013L5.6424 14.1199V6.50164L7.77067 7.67527C9.7002 8.7393 10.8888 10.7057 10.8888 12.8338ZM3.66261 5.40989L4.45452 5.84659V14.7745L4.53766 14.8191L10.8888 18.3214V19.1299L3.67282 15.1507L3.66261 15.1565V5.40989ZM2.37575 4.70025V15.8432L2.41296 15.8635L2.37575 15.8846L10.8791 20.5737C10.808 20.9477 10.3613 21.1611 9.99793 20.9607L1.58383 16.3208V4.26355L2.37575 4.70025Z" fill="url(#paint10_linear_10495_1826)"/>
<path fill-rule="evenodd" clip-rule="evenodd" d="M0 3.39016L1.56346 2.50552L9.3545 6.80187C11.284 7.8659 12.4727 9.83231 12.4727 11.9604V19.1948L12.4725 19.1947C12.4459 21.3575 9.98722 22.7016 8.01815 21.6158L0.956906 17.7219L0 17.2078V3.39016ZM10.8888 12.8338V17.013L5.6424 14.1199V6.50164L7.77067 7.67527C9.7002 8.7393 10.8888 10.7057 10.8888 12.8338ZM3.66261 5.40989L4.45452 5.84659V14.7745L4.53766 14.8191L10.8888 18.3214V19.1299L3.67282 15.1507L3.66261 15.1565V5.40989ZM2.37575 4.70025V15.8432L2.41296 15.8635L2.37575 15.8846L10.8791 20.5737C10.808 20.9477 10.3613 21.1611 9.99793 20.9607L1.58383 16.3208V4.26355L2.37575 4.70025Z" fill="url(#paint11_linear_10495_1826)"/>
<path fill-rule="evenodd" clip-rule="evenodd" d="M0 3.39016L1.56346 2.50552L9.3545 6.80187C11.284 7.8659 12.4727 9.83231 12.4727 11.9604V19.1948L12.4725 19.1947C12.4459 21.3575 9.98722 22.7016 8.01815 21.6158L0.956906 17.7219L0 17.2078V3.39016ZM10.8888 12.8338V17.013L5.6424 14.1199V6.50164L7.77067 7.67527C9.7002 8.7393 10.8888 10.7057 10.8888 12.8338ZM3.66261 5.40989L4.45452 5.84659V14.7745L4.53766 14.8191L10.8888 18.3214V19.1299L3.67282 15.1507L3.66261 15.1565V5.40989ZM2.37575 4.70025V15.8432L2.41296 15.8635L2.37575 15.8846L10.8791 20.5737C10.808 20.9477 10.3613 21.1611 9.99793 20.9607L1.58383 16.3208V4.26355L2.37575 4.70025Z" fill="url(#paint12_angular_10495_1826)" fill-opacity="0.2"/>
<path fill-rule="evenodd" clip-rule="evenodd" d="M0 3.39016L1.56346 2.50552L9.3545 6.80187C11.284 7.8659 12.4727 9.83231 12.4727 11.9604V19.1948L12.4725 19.1947C12.4459 21.3575 9.98722 22.7016 8.01815 21.6158L0.956906 17.7219L0 17.2078V3.39016ZM10.8888 12.8338V17.013L5.6424 14.1199V6.50164L7.77067 7.67527C9.7002 8.7393 10.8888 10.7057 10.8888 12.8338ZM3.66261 5.40989L4.45452 5.84659V14.7745L4.53766 14.8191L10.8888 18.3214V19.1299L3.67282 15.1507L3.66261 15.1565V5.40989ZM2.37575 4.70025V15.8432L2.41296 15.8635L2.37575 15.8846L10.8791 20.5737C10.808 20.9477 10.3613 21.1611 9.99793 20.9607L1.58383 16.3208V4.26355L2.37575 4.70025Z" fill="url(#paint13_angular_10495_1826)" fill-opacity="0.1"/>
<path fill-rule="evenodd" clip-rule="evenodd" d="M0 3.39016L1.56346 2.50552L9.3545 6.80187C11.284 7.8659 12.4727 9.83231 12.4727 11.9604V19.1948L12.4725 19.1947C12.4459 21.3575 9.98722 22.7016 8.01815 21.6158L0.956906 17.7219L0 17.2078V3.39016ZM10.8888 12.8338V17.013L5.6424 14.1199V6.50164L7.77067 7.67527C9.7002 8.7393 10.8888 10.7057 10.8888 12.8338ZM3.66261 5.40989L4.45452 5.84659V14.7745L4.53766 14.8191L10.8888 18.3214V19.1299L3.67282 15.1507L3.66261 15.1565V5.40989ZM2.37575 4.70025V15.8432L2.41296 15.8635L2.37575 15.8846L10.8791 20.5737C10.808 20.9477 10.3613 21.1611 9.99793 20.9607L1.58383 16.3208V4.26355L2.37575 4.70025Z" fill="url(#paint14_linear_10495_1826)" fill-opacity="0.2"/>
<defs>
<linearGradient id="paint0_linear_10495_1826" x1="-0.281524" y1="11" x2="16.7185" y2="9.48023" gradientUnits="userSpaceOnUse">
<stop stop-color="#FF3873"/>
<stop offset="0.473958" stop-color="#711EFF"/>
<stop offset="1" stop-color="#3FE5FF"/>
</linearGradient>
<linearGradient id="paint1_linear_10495_1826" x1="1.04789" y1="1.01249" x2="12.9166" y2="11.0954" gradientUnits="userSpaceOnUse">
<stop stop-color="#F6F063"/>
<stop offset="1" stop-color="#E07774" stop-opacity="0"/>
</linearGradient>
<radialGradient id="paint2_angular_10495_1826" cx="0" cy="0" r="1" gradientUnits="userSpaceOnUse" gradientTransform="translate(0.445746 7.73358) rotate(65.584) scale(4.92826 4.22916)">
<stop offset="0.925861" stop-color="white"/>
<stop offset="1" stop-color="white" stop-opacity="0"/>
</radialGradient>
<radialGradient id="paint3_angular_10495_1826" cx="0" cy="0" r="1" gradientUnits="userSpaceOnUse" gradientTransform="translate(2.90126 5.69334) rotate(59.0024) scale(3.12803 4.27217)">
<stop offset="0.0864251" stop-color="white"/>
<stop offset="0.94115" stop-color="white" stop-opacity="0"/>
</radialGradient>
<linearGradient id="paint4_linear_10495_1826" x1="1.93548" y1="6.11055" x2="10.7437" y2="9.22008" gradientUnits="userSpaceOnUse">
<stop stop-color="white"/>
<stop offset="1" stop-opacity="0"/>
</linearGradient>
<linearGradient id="paint5_linear_10495_1826" x1="-0.281524" y1="11" x2="16.7185" y2="9.48023" gradientUnits="userSpaceOnUse">
<stop stop-color="#FF3873"/>
<stop offset="0.473958" stop-color="#711EFF"/>
<stop offset="1" stop-color="#3FE5FF"/>
</linearGradient>
<linearGradient id="paint6_linear_10495_1826" x1="1.04789" y1="1.01249" x2="12.9166" y2="11.0954" gradientUnits="userSpaceOnUse">
<stop stop-color="#F6F063"/>
<stop offset="1" stop-color="#E07774" stop-opacity="0"/>
</linearGradient>
<radialGradient id="paint7_angular_10495_1826" cx="0" cy="0" r="1" gradientUnits="userSpaceOnUse" gradientTransform="translate(0.445746 7.73358) rotate(65.584) scale(4.92826 4.22916)">
<stop offset="0.925861" stop-color="white"/>
<stop offset="1" stop-color="white" stop-opacity="0"/>
</radialGradient>
<radialGradient id="paint8_angular_10495_1826" cx="0" cy="0" r="1" gradientUnits="userSpaceOnUse" gradientTransform="translate(2.90126 5.69334) rotate(59.0024) scale(3.12803 4.27217)">
<stop offset="0.0864251" stop-color="white"/>
<stop offset="0.94115" stop-color="white" stop-opacity="0"/>
</radialGradient>
<linearGradient id="paint9_linear_10495_1826" x1="1.93548" y1="6.11055" x2="10.7437" y2="9.22008" gradientUnits="userSpaceOnUse">
<stop stop-color="white"/>
<stop offset="1" stop-opacity="0"/>
</linearGradient>
<linearGradient id="paint10_linear_10495_1826" x1="-0.281524" y1="11" x2="16.7185" y2="9.48023" gradientUnits="userSpaceOnUse">
<stop stop-color="#FF3873"/>
<stop offset="0.473958" stop-color="#711EFF"/>
<stop offset="1" stop-color="#3FE5FF"/>
</linearGradient>
<linearGradient id="paint11_linear_10495_1826" x1="1.04789" y1="1.01249" x2="12.9166" y2="11.0954" gradientUnits="userSpaceOnUse">
<stop stop-color="#F6F063"/>
<stop offset="1" stop-color="#E07774" stop-opacity="0"/>
</linearGradient>
<radialGradient id="paint12_angular_10495_1826" cx="0" cy="0" r="1" gradientUnits="userSpaceOnUse" gradientTransform="translate(0.445746 7.73358) rotate(65.584) scale(4.92826 4.22916)">
<stop offset="0.925861" stop-color="white"/>
<stop offset="1" stop-color="white" stop-opacity="0"/>
</radialGradient>
<radialGradient id="paint13_angular_10495_1826" cx="0" cy="0" r="1" gradientUnits="userSpaceOnUse" gradientTransform="translate(2.90126 5.69334) rotate(59.0024) scale(3.12803 4.27217)">
<stop offset="0.0864251" stop-color="white"/>
<stop offset="0.94115" stop-color="white" stop-opacity="0"/>
</radialGradient>
<linearGradient id="paint14_linear_10495_1826" x1="1.93548" y1="6.11055" x2="10.7437" y2="9.22008" gradientUnits="userSpaceOnUse">
<stop stop-color="white"/>
<stop offset="1" stop-opacity="0"/>
</linearGradient>
</defs>
</svg>
